<svg width="161" height="52" viewBox="0 0 161 52" fill="none" xmlns="http://www.w3.org/2000/svg">
<path d="M19.6723 5.01946C20.4376 5.02478 21.2025 5.0301 21.9327 5.0301H29.3618C30.0919 5.0301 30.8568 5.02478 31.6221 5.01946C33.6825 5.00512 35.7459 4.99076 37.1424 5.08019C42.2264 5.40577 45.7326 8.48619 46.1834 13.7204C46.2902 15.6013 46.2877 17.8671 46.2846 20.5392V20.54C46.2841 20.9986 46.2836 21.4692 46.2836 21.9519V29.381C46.2836 29.8637 46.2841 30.3343 46.2846 30.7929C46.2877 33.4654 46.2903 35.7314 46.1834 37.6125C45.7326 42.8467 42.2264 45.9271 37.1424 46.2527C35.7459 46.3421 33.6825 46.3278 31.6221 46.3134C30.8568 46.3081 30.0919 46.3028 29.3618 46.3028H21.9327C21.2025 46.3028 20.4376 46.3081 19.6723 46.3134C17.6119 46.3278 15.5485 46.3421 14.152 46.2527C9.06802 45.9271 5.56185 42.8467 5.11105 37.6125C5.00417 35.7316 5.00675 33.4658 5.0098 30.7937V30.7929C5.01033 30.3343 5.01086 29.8637 5.01086 29.381V21.9519C5.01086 21.4692 5.01033 20.9986 5.0098 20.54V20.5392C5.00675 17.8671 5.00417 15.6013 5.11105 13.7204C5.56185 8.48619 9.06802 5.40577 14.152 5.08019C15.5485 4.99076 17.6119 5.00512 19.6723 5.01946Z" fill="url(#paint0_linear_47_442)"/>
<g filter="url(#filter0_dddddd_47_442)">
<path d="M11.7206 19.7348C11.7206 18.6836 12.5728 17.8314 13.624 17.8314H26.9475C29.6031 17.8314 31.7559 19.9842 31.7559 22.6399V31.5055C31.7559 32.5567 30.9038 33.4089 29.8526 33.4089H16.5291C13.8735 33.4089 11.7206 31.256 11.7206 28.6004V19.7348Z" fill="url(#paint1_linear_47_442)"/>
<path d="M13.624 18.0568H26.9475C29.4786 18.0568 31.5305 20.1087 31.5305 22.6399V31.5055C31.5305 32.4322 30.7793 33.1835 29.8526 33.1835H16.5291C13.9979 33.1835 11.946 31.1315 11.946 28.6004V19.7348C11.946 18.8081 12.6973 18.0568 13.624 18.0568Z" stroke="url(#paint2_linear_47_442)" stroke-width="0.450794"/>
</g>
<g filter="url(#filter1_dddddd_47_442)">
<path d="M32.958 23.3465C32.958 22.6986 33.2368 22.0821 33.7233 21.6542L37.5405 18.2961C38.3494 17.5845 39.6198 18.1589 39.6198 19.2363V32.0422C39.6198 33.1094 38.3701 33.6875 37.5568 32.9964L34.0528 30.0193C33.3583 29.4293 32.958 28.564 32.958 27.6527V23.3465Z" fill="url(#paint3_linear_47_442)"/>
<path d="M33.8721 21.8234L37.6894 18.4654C38.3527 17.8818 39.3944 18.3529 39.3944 19.2363V32.0422C39.3944 32.9173 38.3697 33.3913 37.7027 32.8247L34.1987 29.8476C33.5546 29.3004 33.1834 28.4979 33.1834 27.6527V23.3465C33.1834 22.7634 33.4343 22.2085 33.8721 21.8234Z" stroke="url(#paint4_linear_47_442)" stroke-width="0.450794"/>
</g>
<path d="M75.1341 22.6834H69.2146C69.1357 22.0756 68.9739 21.5271 68.7292 21.0377C68.4845 20.5484 68.1609 20.1301 67.7584 19.7828C67.3559 19.4355 66.8784 19.1711 66.3259 18.9896C65.7813 18.8002 65.1775 18.7055 64.5145 18.7055C63.3385 18.7055 62.3243 18.9935 61.4719 19.5697C60.6274 20.1459 59.9762 20.9785 59.5184 22.0677C59.0686 23.1569 58.8436 24.475 58.8436 26.022C58.8436 27.6321 59.0725 28.9817 59.5303 30.0709C59.9959 31.1522 60.6471 31.9691 61.4837 32.5216C62.3282 33.0662 63.3267 33.3385 64.479 33.3385C65.1262 33.3385 65.7142 33.2556 66.243 33.0899C66.7797 32.9241 67.2493 32.6834 67.6519 32.3677C68.0623 32.0441 68.3977 31.6534 68.6582 31.1956C68.9265 30.73 69.112 30.2051 69.2146 29.621L75.1341 29.6566C75.0315 30.73 74.7198 31.7876 74.1988 32.8294C73.6858 33.8713 72.9794 34.8223 72.0797 35.6826C71.1799 36.535 70.0828 37.2138 68.7884 37.7189C67.5019 38.2241 66.026 38.4766 64.3606 38.4766C62.1664 38.4766 60.2012 37.9952 58.4648 37.0323C56.7363 36.0615 55.3708 34.6487 54.3685 32.7939C53.3661 30.9391 52.8649 28.6818 52.8649 26.022C52.8649 23.3542 53.374 21.093 54.3921 19.2382C55.4103 17.3834 56.7876 15.9746 58.524 15.0117C60.2604 14.0488 62.2059 13.5673 64.3606 13.5673C65.8286 13.5673 67.1862 13.7725 68.4332 14.1829C69.6803 14.5855 70.7774 15.1774 71.7245 15.9588C72.6716 16.7323 73.4411 17.6834 74.0331 18.812C74.625 19.9407 74.9921 21.2311 75.1341 22.6834ZM101.372 26.022C101.372 28.6897 100.859 30.951 99.8333 32.8057C98.8072 34.6605 97.4181 36.0694 95.666 37.0323C93.9217 37.9952 91.9643 38.4766 89.7938 38.4766C87.6154 38.4766 85.6541 37.9912 83.9098 37.0204C82.1655 36.0496 80.7804 34.6408 79.7543 32.7939C78.7361 30.9391 78.2271 28.6818 78.2271 26.022C78.2271 23.3542 78.7361 21.093 79.7543 19.2382C80.7804 17.3834 82.1655 15.9746 83.9098 15.0117C85.6541 14.0488 87.6154 13.5673 89.7938 13.5673C91.9643 13.5673 93.9217 14.0488 95.666 15.0117C97.4181 15.9746 98.8072 17.3834 99.8333 19.2382C100.859 21.093 101.372 23.3542 101.372 26.022ZM95.3818 26.022C95.3818 24.4434 95.1569 23.1096 94.707 22.0204C94.265 20.9312 93.6257 20.1064 92.7891 19.546C91.9603 18.9856 90.9619 18.7055 89.7938 18.7055C88.6336 18.7055 87.6351 18.9856 86.7985 19.546C85.9619 20.1064 85.3186 20.9312 84.8688 22.0204C84.4268 23.1096 84.2058 24.4434 84.2058 26.022C84.2058 27.6005 84.4268 28.9344 84.8688 30.0236C85.3186 31.1128 85.9619 31.9375 86.7985 32.4979C87.6351 33.0583 88.6336 33.3385 89.7938 33.3385C90.9619 33.3385 91.9603 33.0583 92.7891 32.4979C93.6257 31.9375 94.265 31.1128 94.707 30.0236C95.1569 28.9344 95.3818 27.6005 95.3818 26.022ZM127.679 26.022C127.679 28.6897 127.166 30.951 126.14 32.8057C125.114 34.6605 123.724 36.0694 121.972 37.0323C120.228 37.9952 118.271 38.4766 116.1 38.4766C113.922 38.4766 111.96 37.9912 110.216 37.0204C108.472 36.0496 107.087 34.6408 106.061 32.7939C105.042 30.9391 104.533 28.6818 104.533 26.022C104.533 23.3542 105.042 21.093 106.061 19.2382C107.087 17.3834 108.472 15.9746 110.216 15.0117C111.96 14.0488 113.922 13.5673 116.1 13.5673C118.271 13.5673 120.228 14.0488 121.972 15.0117C123.724 15.9746 125.114 17.3834 126.14 19.2382C127.166 21.093 127.679 23.3542 127.679 26.022ZM121.688 26.022C121.688 24.4434 121.463 23.1096 121.013 22.0204C120.571 20.9312 119.932 20.1064 119.095 19.546C118.267 18.9856 117.268 18.7055 116.1 18.7055C114.94 18.7055 113.941 18.9856 113.105 19.546C112.268 20.1064 111.625 20.9312 111.175 22.0204C110.733 23.1096 110.512 24.4434 110.512 26.022C110.512 27.6005 110.733 28.9344 111.175 30.0236C111.625 31.1128 112.268 31.9375 113.105 32.4979C113.941 33.0583 114.94 33.3385 116.1 33.3385C117.268 33.3385 118.267 33.0583 119.095 32.4979C119.932 31.9375 120.571 31.1128 121.013 30.0236C121.463 28.9344 121.688 27.6005 121.688 26.022ZM131.1 13.8988H138.357L144.514 28.9107H144.798L150.954 13.8988H158.212V38.1451H152.505V23.2516H152.304L146.479 37.9912H142.833L137.008 23.1688H136.807V38.1451H131.1V13.8988Z" fill="white"/>
<defs>
<filter id="filter0_dddddd_47_442" x="8.11429" y="16.479" width="27.248" height="22.7901" filterUnits="userSpaceOnUse" color-interpolation-filters="sRGB">
<feFlood flood-opacity="0" result="BackgroundImageFix"/>
<feColorMatrix in="SourceAlpha" type="matrix" values="0 0 0 0 0 0 0 0 0 0 0 0 0 0 0 0 0 0 127 0" result="hardAlpha"/>
<feOffset dy="0.123703"/>
<feGaussianBlur stdDeviation="0.0455686"/>
<feColorMatrix type="matrix" values="0 0 0 0 0.0509804 0 0 0 0 0.121569 0 0 0 0 0.396078 0 0 0 0.189957 0"/>
<feBlend mode="multiply" in2="BackgroundImageFix" result="effect1_dropShadow_47_442"/>
<feColorMatrix in="SourceAlpha" type="matrix" values="0 0 0 0 0 0 0 0 0 0 0 0 0 0 0 0 0 0 127 0" result="hardAlpha"/>
<feOffset dy="0.242703"/>
<feGaussianBlur stdDeviation="0.101348"/>
<feColorMatrix type="matrix" values="0 0 0 0 0.0509804 0 0 0 0 0.121569 0 0 0 0 0.396078 0 0 0 0.368551 0"/>
<feBlend mode="multiply" in2="effect1_dropShadow_47_442" result="effect2_dropShadow_47_442"/>
<feColorMatrix in="SourceAlpha" type="matrix" values="0 0 0 0 0 0 0 0 0 0 0 0 0 0 0 0 0 0 127 0" result="hardAlpha"/>
<feOffset dy="0.373252"/>
<feGaussianBlur stdDeviation="0.173572"/>
<feColorMatrix type="matrix" values="0 0 0 0 0.0509804 0 0 0 0 0.121569 0 0 0 0 0.396078 0 0 0 0.3 0"/>
<feBlend mode="multiply" in2="effect2_dropShadow_47_442" result="effect3_dropShadow_47_442"/>
<feColorMatrix in="SourceAlpha" type="matrix" values="0 0 0 0 0 0 0 0 0 0 0 0 0 0 0 0 0 0 127 0" result="hardAlpha"/>
<feOffset dy="0.547679"/>
<feGaussianBlur stdDeviation="0.551221"/>
<feColorMatrix type="matrix" values="0 0 0 0 0.0509804 0 0 0 0 0.121569 0 0 0 0 0.396078 0 0 0 0.3 0"/>
<feBlend mode="multiply" in2="effect3_dropShadow_47_442" result="effect4_dropShadow_47_442"/>
<feColorMatrix in="SourceAlpha" type="matrix" values="0 0 0 0 0 0 0 0 0 0 0 0 0 0 0 0 0 0 127 0" result="hardAlpha"/>
<feOffset dy="0.852209"/>
<feGaussianBlur stdDeviation="1.0248"/>
<feColorMatrix type="matrix" values="0 0 0 0 0.0509804 0 0 0 0 0.121569 0 0 0 0 0.396078 0 0 0 0.29 0"/>
<feBlend mode="overlay" in2="effect4_dropShadow_47_442" result="effect5_dropShadow_47_442"/>
<feColorMatrix in="SourceAlpha" type="matrix" values="0 0 0 0 0 0 0 0 0 0 0 0 0 0 0 0 0 0 127 0" result="hardAlpha"/>
<feOffset dy="2.25397"/>
<feGaussianBlur stdDeviation="1.80318"/>
<feColorMatrix type="matrix" values="0 0 0 0 0.0509804 0 0 0 0 0.121569 0 0 0 0 0.396078 0 0 0 0.45 0"/>
<feBlend mode="multiply" in2="effect5_dropShadow_47_442" result="effect6_dropShadow_47_442"/>
<feBlend mode="normal" in="SourceGraphic" in2="effect6_dropShadow_47_442" result="shape"/>
</filter>
<filter id="filter1_dddddd_47_442" x="29.3517" y="16.6293" width="13.8744" height="22.5278" filterUnits="userSpaceOnUse" color-interpolation-filters="sRGB">
<feFlood flood-opacity="0" result="BackgroundImageFix"/>
<feColorMatrix in="SourceAlpha" type="matrix" values="0 0 0 0 0 0 0 0 0 0 0 0 0 0 0 0 0 0 127 0" result="hardAlpha"/>
<feOffset dy="0.123703"/>
<feGaussianBlur stdDeviation="0.0455686"/>
<feColorMatrix type="matrix" values="0 0 0 0 0.0509804 0 0 0 0 0.121569 0 0 0 0 0.396078 0 0 0 0.189957 0"/>
<feBlend mode="multiply" in2="BackgroundImageFix" result="effect1_dropShadow_47_442"/>
<feColorMatrix in="SourceAlpha" type="matrix" values="0 0 0 0 0 0 0 0 0 0 0 0 0 0 0 0 0 0 127 0" result="hardAlpha"/>
<feOffset dy="0.242703"/>
<feGaussianBlur stdDeviation="0.101348"/>
<feColorMatrix type="matrix" values="0 0 0 0 0.0509804 0 0 0 0 0.121569 0 0 0 0 0.396078 0 0 0 0.368551 0"/>
<feBlend mode="multiply" in2="effect1_dropShadow_47_442" result="effect2_dropShadow_47_442"/>
<feColorMatrix in="SourceAlpha" type="matrix" values="0 0 0 0 0 0 0 0 0 0 0 0 0 0 0 0 0 0 127 0" result="hardAlpha"/>
<feOffset dy="0.373252"/>
<feGaussianBlur stdDeviation="0.173572"/>
<feColorMatrix type="matrix" values="0 0 0 0 0.0509804 0 0 0 0 0.121569 0 0 0 0 0.396078 0 0 0 0.3 0"/>
<feBlend mode="multiply" in2="effect2_dropShadow_47_442" result="effect3_dropShadow_47_442"/>
<feColorMatrix in="SourceAlpha" type="matrix" values="0 0 0 0 0 0 0 0 0 0 0 0 0 0 0 0 0 0 127 0" result="hardAlpha"/>
<feOffset dy="0.547679"/>
<feGaussianBlur stdDeviation="0.551221"/>
<feColorMatrix type="matrix" values="0 0 0 0 0.0509804 0 0 0 0 0.121569 0 0 0 0 0.396078 0 0 0 0.3 0"/>
<feBlend mode="multiply" in2="effect3_dropShadow_47_442" result="effect4_dropShadow_47_442"/>
<feColorMatrix in="SourceAlpha" type="matrix" values="0 0 0 0 0 0 0 0 0 0 0 0 0 0 0 0 0 0 127 0" result="hardAlpha"/>
<feOffset dy="0.852209"/>
<feGaussianBlur stdDeviation="1.0248"/>
<feColorMatrix type="matrix" values="0 0 0 0 0.0509804 0 0 0 0 0.121569 0 0 0 0 0.396078 0 0 0 0.29 0"/>
<feBlend mode="overlay" in2="effect4_dropShadow_47_442" result="effect5_dropShadow_47_442"/>
<feColorMatrix in="SourceAlpha" type="matrix" values="0 0 0 0 0 0 0 0 0 0 0 0 0 0 0 0 0 0 127 0" result="hardAlpha"/>
<feOffset dy="2.25397"/>
<feGaussianBlur stdDeviation="1.80318"/>
<feColorMatrix type="matrix" values="0 0 0 0 0.0509804 0 0 0 0 0.121569 0 0 0 0 0.396078 0 0 0 0.45 0"/>
<feBlend mode="multiply" in2="effect5_dropShadow_47_442" result="effect6_dropShadow_47_442"/>
<feBlend mode="normal" in="SourceGraphic" in2="effect6_dropShadow_47_442" result="shape"/>
</filter>
<linearGradient id="paint0_linear_47_442" x1="25.6472" y1="5.00879" x2="25.6472" y2="46.3241" gradientUnits="userSpaceOnUse">
<stop stop-color="#A4C1FF"/>
<stop offset="1" stop-color="#0E78F9"/>
</linearGradient>
<linearGradient id="paint1_linear_47_442" x1="21.7383" y1="17.8314" x2="21.7383" y2="33.4089" gradientUnits="userSpaceOnUse">
<stop stop-color="white"/>
<stop offset="1" stop-color="#C5D4F7"/>
</linearGradient>
<linearGradient id="paint2_linear_47_442" x1="21.7383" y1="17.8314" x2="21.7383" y2="33.4089" gradientUnits="userSpaceOnUse">
<stop stop-color="white"/>
<stop offset="1" stop-color="#637ACA"/>
</linearGradient>
<linearGradient id="paint3_linear_47_442" x1="36.2889" y1="17.9817" x2="36.2889" y2="33.2968" gradientUnits="userSpaceOnUse">
<stop stop-color="white"/>
<stop offset="1" stop-color="#C5D4F7"/>
</linearGradient>
<linearGradient id="paint4_linear_47_442" x1="36.2889" y1="17.9817" x2="36.2889" y2="33.2968" gradientUnits="userSpaceOnUse">
<stop stop-color="white"/>
<stop offset="1" stop-color="#637ACA"/>
</linearGradient>
</defs>
</svg>
